# xmcd CD database file
#
# Track frame offsets:
#	150
#	13205
#	24319
#	35286
#	46479
#	60722
#	74398
#	92773
#	101943
#	117953
#
# Disc length: 1775 seconds
#
# Revision: 0
# Processed by: cddbd v1.5.1PL2 Copyright (c) Steve Scherf et al.
# Submitted via: CDex 1.40Release
#
DISCID=8506ed0a
DTITLE=The International Submarine Band - Back At Home
DYEAR=1900
DGENRE=Country
TTITLE0=The way you used to do
TTITLE1=Feel a whole lot better
TTITLE2=One day week
TTITLE3=Why don't you love me like you used to do
TTITLE4=Monster's holiday
TTITLE5=Cadillac poor
TTITLE6=Don't kick the jukebox
TTITLE7=High Country
TTITLE8=Give me some credit
TTITLE9=Memphis song
EXTD=ID3G: 2
EXTT0=
EXTT1=
EXTT2=
EXTT3=
EXTT4=
EXTT5=
EXTT6=
EXTT7=
EXTT8=
EXTT9=
PLAYORDER=
